#Comment line ignore any data following # character 
#Hierarchical Translation and Rotation (.htr) file 
[Header]	
#Header keywords are followed by a single value 
FileType HTR		#Single word string
DataType HTRS		#Translation followed by rotation and scale data
FileVersion 1		#integer
NumSegments 64		#integer
NumFrames 3		#integer
DataFrameRate 30		#integer, data frame rate in this file
EulerRotationOrder ZYX
CalibrationUnits mm
RotationUnits Degrees
GlobalAxisofGravity Y
BoneLengthAxis Y
ScaleFactor 1.00
[SegmentNames&Hierarchy]
#CHILD	PARENT
Pinger_Root GLOBAL
Pelvis Pinger_Root
L_Hip Pelvis
R_Hip Pelvis
Rear_Leg01 Pelvis
Spine1 Pelvis
L_Leg01 L_Hip
L_Leg02 L_Leg01
L_Leg03 L_Leg02
L_Foot L_Leg03
L_Toe1_01 L_Foot
L_Toe2_01 L_Foot
L_Toe3_01 L_Foot
planeAlignerLeft L_Foot
L_Toe1_02 L_Toe1_01
L_Toe1_03 L_Toe1_02
L_Toe2_02 L_Toe2_01
L_Toe2_03 L_Toe2_02
L_Toe3_02 L_Toe3_01
L_Toe3_03 L_Toe3_02
planeLockWeightLeft planeAlignerLeft
R_Leg01 R_Hip
R_Leg02 R_Leg01
R_Leg03 R_Leg02
R_Foot R_Leg03
planeAlignerRight R_Foot
R_Toe1_01 R_Foot
R_Toe2_01 R_Foot
R_Toe3_01 R_Foot
planeLockWeightRight planeAlignerRight
R_Toe1_02 R_Toe1_01
R_Toe1_03 R_Toe1_02
R_Toe2_02 R_Toe2_01
R_Toe2_03 R_Toe2_02
R_Toe3_02 R_Toe3_01
R_Toe3_03 R_Toe3_02
Rear_Leg02 Rear_Leg01
Rear_Leg03 Rear_Leg02
Rear_Leg04 Rear_Leg03
Rear_Foot Rear_Leg04
planeAlignerCenter Rear_Foot
Rear_Toe1_01 Rear_Foot
Rear_Toe2_01 Rear_Foot
Rear_Toe3_01 Rear_Foot
planeLockWeightCenter planeAlignerCenter
Rear_Toe1_02 Rear_Toe1_01
Rear_Toe1_03 Rear_Toe1_02
Rear_Toe2_02 Rear_Toe2_01
Rear_Toe2_03 Rear_Toe2_02
Rear_Toe3_02 Rear_Toe3_01
Rear_Toe3_03 Rear_Toe3_02
Back_Bone Spine1
Head Spine1
Motor_Bone Back_Bone
Ping_Mechanism Back_Bone
BN_LookIK Head
bottomMouth Head
L_Mouth01 Head
L_mouthFront Head
mouthGun Head
R_Mouth01 Head
R_mouthFront Head
TopMouth Head
weapon_bone Head
[BasePosition]
#SegmentName Tx, Ty, Tz, Rx, Ry, Rz, BoneLength
Pinger_Root 0.000000 0.000000 0.000000 -90.000000 0.000000 0.000000 10.000000 
Pelvis 0.000000 0.000000 0.000000 0.000000 0.000000 0.000000 10.000000 
L_Hip 0.000000 0.000000 0.000000 0.000000 0.000000 0.000000 10.000000 
R_Hip 0.000000 0.000000 0.000000 0.000000 0.000000 0.000000 10.000000 
Rear_Leg01 0.000000 0.000000 0.000000 0.000000 0.000000 0.000000 10.000000 
Spine1 0.000000 0.000000 0.000000 0.000000 0.000000 0.000000 10.000000 
L_Leg01 0.000000 0.000000 0.000000 0.000000 0.000000 0.000000 10.000000 
L_Leg02 0.000000 0.000000 0.000000 0.000000 0.000000 0.000000 10.000000 
L_Leg03 0.000000 0.000000 0.000000 0.000000 0.000000 0.000000 10.000000 
L_Foot 0.000000 0.000000 0.000000 0.000000 0.000000 0.000000 10.000000 
L_Toe1_01 0.000000 0.000000 0.000000 0.000000 0.000000 0.000000 10.000000 
L_Toe2_01 0.000000 0.000000 0.000000 0.000000 0.000000 0.000000 10.000000 
L_Toe3_01 0.000000 0.000000 0.000000 0.000000 0.000000 0.000000 10.000000 
planeAlignerLeft 0.000000 0.000000 0.000000 0.000000 0.000000 0.000000 10.000000 
L_Toe1_02 0.000000 0.000000 0.000000 0.000000 0.000000 0.000000 10.000000 
L_Toe1_03 0.000000 0.000000 0.000000 0.000000 0.000000 0.000000 10.000000 
L_Toe2_02 0.000000 0.000000 0.000000 0.000000 0.000000 0.000000 10.000000 
L_Toe2_03 0.000000 0.000000 0.000000 0.000000 0.000000 0.000000 10.000000 
L_Toe3_02 0.000000 0.000000 0.000000 0.000000 0.000000 0.000000 10.000000 
L_Toe3_03 0.000000 0.000000 0.000000 0.000000 0.000000 0.000000 10.000000 
planeLockWeightLeft 0.000000 0.000000 0.000000 0.000000 0.000000 0.000000 10.000000 
R_Leg01 0.000000 0.000000 0.000000 0.000000 0.000000 0.000000 10.000000 
R_Leg02 0.000000 0.000000 0.000000 0.000000 0.000000 0.000000 10.000000 
R_Leg03 0.000000 0.000000 0.000000 0.000000 0.000000 0.000000 10.000000 
R_Foot 0.000000 0.000000 0.000000 0.000000 0.000000 0.000000 10.000000 
planeAlignerRight 0.000000 0.000000 0.000000 0.000000 0.000000 0.000000 10.000000 
R_Toe1_01 0.000000 0.000000 0.000000 0.000000 0.000000 0.000000 10.000000 
R_Toe2_01 0.000000 0.000000 0.000000 0.000000 0.000000 0.000000 10.000000 
R_Toe3_01 0.000000 0.000000 0.000000 0.000000 0.000000 0.000000 10.000000 
planeLockWeightRight 0.000000 0.000000 0.000000 0.000000 0.000000 0.000000 10.000000 
R_Toe1_02 0.000000 0.000000 0.000000 0.000000 0.000000 0.000000 10.000000 
R_Toe1_03 0.000000 0.000000 0.000000 0.000000 0.000000 0.000000 10.000000 
R_Toe2_02 0.000000 0.000000 0.000000 0.000000 0.000000 0.000000 10.000000 
R_Toe2_03 0.000000 0.000000 0.000000 0.000000 0.000000 0.000000 10.000000 
R_Toe3_02 0.000000 0.000000 0.000000 0.000000 0.000000 0.000000 10.000000 
R_Toe3_03 0.000000 0.000000 0.000000 0.000000 0.000000 0.000000 10.000000 
Rear_Leg02 0.000000 0.000000 0.000000 0.000000 0.000000 0.000000 10.000000 
Rear_Leg03 0.000000 0.000000 0.000000 0.000000 0.000000 0.000000 10.000000 
Rear_Leg04 0.000000 0.000000 0.000000 0.000000 0.000000 0.000000 10.000000 
Rear_Foot 0.000000 0.000000 0.000000 0.000000 0.000000 0.000000 10.000000 
planeAlignerCenter 0.000000 0.000000 0.000000 0.000000 0.000000 0.000000 10.000000 
Rear_Toe1_01 0.000000 0.000000 0.000000 0.000000 0.000000 0.000000 10.000000 
Rear_Toe2_01 0.000000 0.000000 0.000000 0.000000 0.000000 0.000000 10.000000 
Rear_Toe3_01 0.000000 0.000000 0.000000 0.000000 0.000000 0.000000 10.000000 
planeLockWeightCenter 0.000000 0.000000 0.000000 0.000000 0.000000 0.000000 10.000000 
Rear_Toe1_02 0.000000 0.000000 0.000000 0.000000 0.000000 0.000000 10.000000 
Rear_Toe1_03 0.000000 0.000000 0.000000 0.000000 0.000000 0.000000 10.000000 
Rear_Toe2_02 0.000000 0.000000 0.000000 0.000000 0.000000 0.000000 10.000000 
Rear_Toe2_03 0.000000 0.000000 0.000000 0.000000 0.000000 0.000000 10.000000 
Rear_Toe3_02 0.000000 0.000000 0.000000 0.000000 0.000000 0.000000 10.000000 
Rear_Toe3_03 0.000000 0.000000 0.000000 0.000000 0.000000 0.000000 10.000000 
Back_Bone 0.000000 0.000000 0.000000 0.000000 0.000000 0.000000 10.000000 
Head 0.000000 0.000000 0.000000 0.000000 0.000000 0.000000 10.000000 
Motor_Bone 0.000000 0.000000 0.000000 0.000000 0.000000 0.000000 10.000000 
Ping_Mechanism 0.000000 0.000000 0.000000 0.000000 0.000000 0.000000 10.000000 
BN_LookIK 0.000000 0.000000 0.000000 0.000000 0.000000 0.000000 10.000000 
bottomMouth 0.000000 0.000000 0.000000 0.000000 0.000000 0.000000 10.000000 
L_Mouth01 0.000000 0.000000 0.000000 0.000000 0.000000 0.000000 10.000000 
L_mouthFront 0.000000 0.000000 0.000000 0.000000 0.000000 0.000000 10.000000 
mouthGun 0.000000 0.000000 0.000000 0.000000 0.000000 0.000000 10.000000 
R_Mouth01 0.000000 0.000000 0.000000 0.000000 0.000000 0.000000 10.000000 
R_mouthFront 0.000000 0.000000 0.000000 0.000000 0.000000 0.000000 10.000000 
TopMouth 0.000000 0.000000 0.000000 0.000000 0.000000 0.000000 10.000000 
weapon_bone 0.000000 0.000000 0.000000 0.000000 0.000000 0.000000 10.000000 
#Beginning of Data. Separated by tabs
#Fr	Tx	Ty	Tz	Rx	Ry	Rz	SF
[Pinger_Root]
307 0.000000 -3117.971191 0.000000 -0.000075 -0.000000 -0.000020 3117.971191
308 0.000000 -3132.886230 0.000000 -0.000075 -0.000000 -0.000020 3132.886230
309 0.000000 -3147.802002 0.000000 -0.000075 -0.000000 -0.000020 3147.802002
[Pelvis]
307 1436.807373 18351.097656 7060.775391 -176.725464 -86.618469 163.864197 19715.013672
308 1436.487549 18366.058594 7060.757324 -176.785812 -86.605927 163.924988 19728.910156
309 1436.167725 18381.019531 7060.738770 -176.845703 -86.593315 163.985321 19742.808594
[L_Hip]
307 5.766392 125.831482 872.656799 160.158691 -45.484894 122.312187 881.701050
308 5.766392 125.831482 872.656799 160.158691 -45.484894 122.312202 881.701050
309 5.766392 125.831482 872.656799 160.158691 -45.484905 122.312202 881.701050
[R_Hip]
307 5.765438 125.836372 -872.654907 38.087841 49.812687 125.703735 881.699829
308 5.765438 125.836372 -872.654907 38.087841 49.812687 125.703735 881.699829
309 5.765438 125.836372 -872.654907 38.087841 49.812687 125.703735 881.699829
[Rear_Leg01]
307 -192.298416 -925.602966 -0.001907 169.620728 1.770227 -159.700241 945.367432
308 -192.298416 -925.602966 -0.001907 169.619110 1.767305 -159.694534 945.367432
309 -192.298416 -925.602966 -0.001907 169.617508 1.764382 -159.688812 945.367432
[Spine1]
307 290.604584 5.007505 0.000477 7.309308 -0.375699 19.330530 290.647736
308 290.604584 5.007505 0.000477 7.313444 -0.363703 19.330622 290.647736
309 290.604584 5.007505 0.000477 7.317576 -0.351706 19.330706 290.647736
[L_Leg01]
307 761.932007 -0.002384 -0.069261 22.935373 -15.629809 -8.893385 761.932068
308 761.932007 -0.002384 -0.069261 22.936636 -15.634561 -8.876287 761.932068
309 761.932007 -0.002384 -0.069261 22.937887 -15.639312 -8.859183 761.932068
[L_Leg02]
307 1441.140503 -0.000954 -0.000715 2.623126 -0.185109 -129.133911 1441.140503
308 1441.140503 -0.000954 -0.000715 2.625494 -0.185188 -129.154999 1441.140503
309 1441.140503 -0.000954 -0.000715 2.627861 -0.185266 -129.176086 1441.140503
[L_Leg03]
307 1686.963989 -0.000715 -0.000954 -0.029933 0.014742 118.225655 1686.963989
308 1686.963989 -0.000715 -0.000954 -0.029933 0.014742 118.227737 1686.963989
309 1686.963989 -0.000715 -0.000954 -0.029933 0.014743 118.229828 1686.963989
[L_Foot]
307 3041.570068 -30.715107 11.297464 1.942624 13.081423 55.473450 3041.746094
308 3041.570068 -30.715107 11.297464 1.943386 13.081341 55.474243 3041.746094
309 3041.570068 -30.715107 11.297464 1.954881 13.080178 55.485344 3041.746094
[L_Toe1_01]
307 -188.216690 -224.732346 -21.137953 93.722031 -6.829109 -171.960403 293.899567
308 -188.216690 -224.732346 -21.137953 93.722107 -6.828455 -171.960205 293.899567
309 -188.216690 -224.732346 -21.137953 93.722153 -6.827799 -171.960007 293.899567
[L_Toe2_01]
307 200.746536 -219.926590 148.838394 -90.029121 -26.324009 -52.670990 332.896027
308 200.746536 -219.926590 148.838394 -90.029343 -26.321644 -52.672382 332.896027
309 200.746536 -219.926590 148.838394 -90.029572 -26.319288 -52.673786 332.896027
[L_Toe3_01]
307 188.832520 -219.859131 -191.078659 -99.783852 13.835667 -67.661873 347.140900
308 188.832520 -219.859131 -191.078659 -99.784897 13.836503 -67.664665 347.140900
309 188.832520 -219.859131 -191.078659 -99.785950 13.837341 -67.667450 347.140900
[planeAlignerLeft]
307 0.812531 -811.448792 -0.314951 0.000000 -90.000000 -90.001900 811.449280
308 0.812531 -811.448792 -0.314951 0.000000 -90.000000 -90.001900 811.449280
309 0.812531 -811.448792 -0.314951 0.000000 -90.000000 -90.001900 811.449280
[L_Toe1_02]
307 413.761139 0.000477 0.000000 0.001384 -25.948675 0.001384 413.761139
308 413.761139 0.000477 0.000000 0.001384 -25.948626 0.001384 413.761139
309 413.761139 0.000477 0.000000 0.001384 -25.948576 0.001384 413.761139
[L_Toe1_03]
307 464.317322 0.000358 -0.000089 0.003730 53.322491 0.003730 464.317322
308 464.317322 0.000358 -0.000089 0.003730 53.325478 0.003730 464.317322
309 464.317322 0.000358 -0.000089 0.003731 53.328453 0.003731 464.317322
[L_Toe2_02]
307 342.235809 -0.000477 0.000238 0.001188 -72.339058 0.001188 342.235809
308 342.235809 -0.000477 0.000238 0.001188 -72.337776 0.001188 342.235809
309 342.235809 -0.000477 0.000238 0.001188 -72.336487 0.001188 342.235809
[L_Toe2_03]
307 420.210846 -0.000715 0.000000 0.029090 85.375511 0.029090 420.210846
308 420.210846 -0.000715 0.000000 0.029090 85.375511 0.029090 420.210846
309 420.210846 -0.000715 0.000000 0.029090 85.375511 0.029090 420.210846
[L_Toe3_02]
307 329.270111 0.000954 0.000000 0.001178 -80.457649 0.001178 329.270111
308 329.270111 0.000954 0.000000 0.001178 -80.457130 0.001178 329.270111
309 329.270111 0.000954 0.000000 0.001178 -80.456528 0.001178 329.270111
[L_Toe3_03]
307 439.137451 -0.001907 0.000954 -179.996063 78.433289 -179.992538 439.137451
308 439.137451 -0.001907 0.000954 -179.996017 78.495781 -179.992508 439.137451
309 439.137451 -0.001907 0.000954 -179.995987 78.558228 -179.992477 439.137451
[planeLockWeightLeft]
307 -0.000954 0.000238 -0.000305 -0.011826 -0.004376 0.005620 0.001029
308 -0.000954 0.000238 -0.000305 -0.011826 -0.004376 0.005620 0.001029
309 -0.000954 0.000238 -0.000305 -0.011826 -0.004376 0.005620 0.001029
[R_Leg01]
307 761.455627 -0.001907 -0.000358 122.774895 -14.038969 32.068581 761.455688
308 761.455627 -0.001907 -0.000358 122.773895 -14.029165 32.080269 761.455688
309 761.455627 -0.001907 -0.000358 122.772911 -14.019361 32.091953 761.455688
[R_Leg02]
307 1441.140625 0.000000 -0.000238 -0.636811 -0.094243 -126.360191 1441.140625
308 1441.140625 0.000000 -0.000238 -0.635798 -0.093932 -126.326714 1441.140625
309 1441.140625 0.000000 -0.000238 -0.634785 -0.093622 -126.293243 1441.140625
[R_Leg03]
307 1686.963989 0.000954 0.001431 0.068153 -0.034769 128.296783 1686.963989
308 1686.963989 0.000954 0.001431 0.068156 -0.034763 128.286728 1686.963989
309 1686.963989 0.000954 0.001431 0.068159 -0.034757 128.276688 1686.963989
[R_Foot]
307 3041.560059 -30.531288 -11.204481 -0.443281 -22.994043 58.905102 3041.734131
308 3041.560059 -30.531288 -11.204481 -0.441496 -22.994137 58.899200 3041.734131
309 3041.560059 -30.531288 -11.204481 -0.439710 -22.994240 58.893299 3041.734131
[planeAlignerRight]
307 -0.635147 -812.270569 -0.364304 0.000000 -89.960434 -90.005180 812.270874
308 -0.635147 -812.270569 -0.364304 0.000000 -89.960434 -90.005180 812.270874
309 -0.635147 -812.270569 -0.364304 0.000000 -89.960434 -90.005180 812.270874
[R_Toe1_01]
307 -188.383347 -224.864899 21.052242 76.765564 -0.375403 -172.986496 294.101532
308 -188.383347 -224.864899 21.052242 76.765617 -0.375064 -172.988831 294.101532
309 -188.383347 -224.864899 21.052242 76.765671 -0.374724 -172.991165 294.101532
[R_Toe2_01]
307 200.637817 -220.002121 -148.787384 -91.674408 33.012829 -58.976677 332.857574
308 200.637817 -220.002121 -148.787384 -91.673485 33.014473 -58.974171 332.857574
309 200.637817 -220.002121 -148.787384 -91.672554 33.016129 -58.971676 332.857574
[R_Toe3_01]
307 188.606735 -220.092957 191.126343 -73.249809 -8.452086 -73.512520 347.192566
308 188.606735 -220.092957 191.126343 -73.250046 -8.452143 -73.509811 347.192566
309 188.606735 -220.092957 191.126343 -73.250275 -8.452203 -73.507095 347.192566
[planeLockWeightRight]
307 -0.000477 0.000000 0.000000 -0.011823 -0.004379 -0.000027 0.000477
308 -0.000477 0.000000 0.000000 -0.011823 -0.004379 -0.000027 0.000477
309 -0.000477 0.000000 0.000000 -0.011823 -0.004379 -0.000027 0.000477
[R_Toe1_02]
307 413.762085 0.000477 -0.000119 0.001394 -24.639559 0.001394 413.762085
308 413.762085 0.000477 -0.000119 0.001394 -24.637541 0.001394 413.762085
309 413.762085 0.000477 -0.000119 0.001394 -24.635523 0.001394 413.762085
[R_Toe1_03]
307 464.317810 0.000000 0.001088 0.006710 69.854736 0.006710 464.317810
308 464.317810 0.000000 0.001088 0.006711 69.857178 0.006711 464.317810
309 464.317810 0.000000 0.001088 0.006712 69.859612 0.006712 464.317810
[R_Toe2_02]
307 342.234741 -0.000954 0.000238 0.001197 -67.368591 0.001197 342.234741
308 342.234741 -0.000954 0.000238 0.001197 -67.371590 0.001197 342.234741
309 342.234741 -0.000954 0.000238 0.001197 -67.374596 0.001197 342.234741
[R_Toe2_03]
307 420.210846 0.000715 -0.000268 0.008342 73.825180 0.008342 420.210846
308 420.210846 0.000715 -0.000268 0.008344 73.828461 0.008344 420.210846
309 420.210846 0.000715 -0.000268 0.008346 73.831718 0.008346 420.210846
[R_Toe3_02]
307 329.270355 -0.000477 -0.000954 0.001184 -74.765205 0.001184 329.270355
308 329.270355 -0.000477 -0.000954 0.001184 -74.768295 0.001184 329.270355
309 329.270355 -0.000477 -0.000954 0.001184 -74.771332 0.001184 329.270355
[R_Toe3_03]
307 439.137939 0.000238 0.001431 -0.012204 83.696152 -0.008702 439.137939
308 439.137939 0.000238 0.001431 -0.012207 83.698051 -0.008705 439.137939
309 439.137939 0.000238 0.001431 -0.012257 83.727859 -0.008755 439.137939
[Rear_Leg02]
307 1162.777710 -0.029802 0.005960 1.175010 -5.923015 -123.528915 1162.777710
308 1162.777710 -0.029802 0.005960 1.174991 -5.923019 -123.528534 1162.777710
309 1162.777710 -0.029802 0.005960 1.174971 -5.923023 -123.528152 1162.777710
[Rear_Leg03]
307 607.192505 -0.013351 -0.073195 0.006474 -0.002113 64.363289 607.192505
308 607.192505 -0.013351 -0.073195 0.006474 -0.002113 64.362564 607.192505
309 607.192505 -0.013351 -0.073195 0.006474 -0.002113 64.361824 607.192505
[Rear_Leg04]
307 995.874512 -0.020504 -0.011921 -0.040538 -0.015105 58.400951 995.874573
308 995.874512 -0.020504 -0.011921 -0.040538 -0.015105 58.400455 995.874573
309 995.874512 -0.020504 -0.011921 -0.040538 -0.015105 58.399956 995.874573
[Rear_Foot]
307 3096.176270 -0.067472 -0.041425 -135.516647 82.852760 57.205963 3096.176270
308 3096.176270 -0.067472 -0.041425 -135.503510 82.854523 57.219646 3096.176270
309 3096.176270 -0.067472 -0.041425 -135.490280 82.856247 57.233376 3096.176270
[planeAlignerCenter]
307 0.350077 0.966311 -838.790894 0.000009 0.000003 -179.999985 838.791565
308 0.350077 0.966311 -838.790894 0.000009 0.000003 -179.999985 838.791565
309 0.350077 0.966311 -838.790894 0.000009 0.000003 -179.999985 838.791565
[Rear_Toe1_01]
307 0.653352 83.966492 -371.173737 0.288186 41.821804 90.412186 380.553192
308 0.653352 83.966492 -371.173737 0.288189 41.819492 90.412163 380.553192
309 0.653352 83.966492 -371.173737 0.288190 41.817196 90.412140 380.553192
[Rear_Toe2_01]
307 178.200760 -294.826019 -362.060547 -7.204932 34.337219 -66.264885 499.765686
308 178.200760 -294.826019 -362.060547 -7.205098 34.335911 -66.264801 499.765686
309 178.200760 -294.826019 -362.060547 -7.205261 34.334599 -66.264717 499.765686
[Rear_Toe3_01]
307 -153.359680 -308.780914 -362.060852 3.291703 33.463448 -112.545708 499.952881
308 -153.359680 -308.780914 -362.060852 3.291760 33.462078 -112.545799 499.952881
309 -153.359680 -308.780914 -362.060852 3.291816 33.460716 -112.545929 499.952881
[planeLockWeightCenter]
307 -0.000062 0.000238 0.000000 -0.011814 -0.004373 -0.000015 0.000246
308 -0.000062 0.000238 0.000000 -0.011814 -0.004373 -0.000015 0.000246
309 -0.000062 0.000238 0.000000 -0.011814 -0.004373 -0.000015 0.000246
[Rear_Toe1_02]
307 379.707825 0.194073 0.000477 -0.000244 -31.702394 0.006935 379.707855
308 379.707825 0.194073 0.000477 -0.000244 -31.702658 0.006935 379.707855
309 379.707825 0.194073 0.000477 -0.000244 -31.702929 0.006935 379.707855
[Rear_Toe1_03]
307 500.129700 0.165701 0.000119 -0.000082 52.113571 0.007312 500.129761
308 500.129700 0.165701 0.000119 -0.000081 52.117413 0.007312 500.129761
309 500.129700 0.165701 0.000119 -0.000081 52.121258 0.007313 500.129761
[Rear_Toe2_02]
307 340.494507 0.000238 -0.000954 0.001192 -69.992867 0.001192 340.494507
308 340.494507 0.000238 -0.000954 0.001192 -69.994591 0.001192 340.494507
309 340.494507 0.000238 -0.000954 0.001192 -69.996338 0.001192 340.494507
[Rear_Toe2_03]
307 433.103577 0.000000 0.000238 0.006735 69.930389 0.006735 433.103546
308 433.103577 0.000000 0.000238 0.006736 69.933388 0.006736 433.103546
309 433.103577 0.000000 0.000238 0.006737 69.936386 0.006737 433.103546
[Rear_Toe3_02]
307 340.494141 -0.000358 -0.000477 0.008329 -67.380211 -0.009501 340.494171
308 340.494141 -0.000358 -0.000477 0.008329 -67.381805 -0.009502 340.494171
309 340.494141 -0.000358 -0.000477 0.008330 -67.383392 -0.009502 340.494171
[Rear_Toe3_03]
307 433.103577 0.001431 -0.000238 -0.000987 66.082924 -0.004561 433.103546
308 433.103577 0.001431 -0.000238 -0.000987 66.085999 -0.004561 433.103546
309 433.103577 0.001431 -0.000238 -0.000987 66.089096 -0.004562 433.103546
[Back_Bone]
307 1312.175781 -701.934692 0.000954 2.783737 -1.450102 -85.681862 1488.125488
308 1312.175781 -701.934692 0.000954 2.783557 -1.449908 -85.681847 1488.125488
309 1312.175781 -701.934692 0.000954 2.783377 -1.449715 -85.681831 1488.125488
[Head]
307 1406.159424 809.709290 0.001431 -1.620687 2.685907 7.767016 1622.625488
308 1406.159424 809.709290 0.001431 -1.620570 2.685671 7.767022 1622.625488
309 1406.159424 809.709290 0.001431 -1.620453 2.685435 7.767029 1622.625488
[Motor_Bone]
307 1158.364380 -417.834747 0.000477 0.211937 -1.154381 -107.351189 1231.419434
308 1158.364380 -417.834747 0.000477 0.252330 -1.155073 -107.388611 1231.419434
309 1158.364380 -417.834747 0.000477 0.292726 -1.155740 -107.426048 1231.419434
[Ping_Mechanism]
307 1233.267212 -441.598969 -1.161520 0.000103 -0.000053 82.120995 1309.946167
308 1233.252441 -441.593658 -1.216340 0.000103 -0.000053 82.120995 1309.930542
309 1233.237671 -441.588318 -1.271164 0.000103 -0.000053 82.120995 1309.914917
[BN_LookIK]
307 193.241119 1380.371704 -0.002861 0.000000 89.965736 -31.038179 1393.832153
308 193.241119 1380.371704 -0.002861 0.000000 89.965736 -31.038179 1393.832153
309 193.241119 1380.371704 -0.002861 0.000000 89.965736 -31.038179 1393.832153
[bottomMouth]
307 -435.092926 615.759399 -0.000954 -0.000022 0.000016 73.527184 753.966492
308 -435.092926 615.759399 -0.000954 -0.000022 0.000016 73.527184 753.966492
309 -435.092926 615.759399 -0.000954 -0.000022 0.000016 73.527184 753.966492
[L_Mouth01]
307 554.440979 7.658243 838.222046 150.204178 23.759130 109.605339 1005.027161
308 554.440979 7.658243 838.222046 150.204178 23.759130 109.605339 1005.027161
309 554.440979 7.658243 838.222046 150.204178 23.759130 109.605339 1005.027161
[L_mouthFront]
307 551.629089 934.514771 339.150421 0.000081 2.804060 79.119301 1136.941284
308 551.629089 934.514771 339.150421 0.000081 2.804060 79.119301 1136.941284
309 551.629089 934.514771 339.150421 0.000081 2.804060 79.119301 1136.941284
[mouthGun]
307 55.332661 1627.420898 0.000000 0.000023 0.000009 -11.038128 1628.361328
308 55.332661 1627.420898 0.000000 0.000023 0.000009 -11.038128 1628.361328
309 55.332661 1627.420898 0.000000 0.000023 0.000009 -11.038128 1628.361328
[R_Mouth01]
307 554.442383 7.659197 -838.223938 29.795891 -23.759109 109.605331 1005.029541
308 554.442383 7.659197 -838.223938 29.795891 -23.759109 109.605331 1005.029541
309 554.442383 7.659197 -838.223938 29.795891 -23.759109 109.605331 1005.029541
[R_mouthFront]
307 551.629089 934.514282 -339.151367 0.000029 -2.803930 79.119133 1136.941162
308 551.629089 934.514282 -339.151367 0.000029 -2.803930 79.119133 1136.941162
309 551.629089 934.514282 -339.151367 0.000029 -2.803930 79.119133 1136.941162
[TopMouth]
307 461.269867 -56.106091 -0.008583 -0.000059 -0.000268 92.025169 464.669525
308 461.269867 -56.106091 -0.008583 -0.000059 -0.000268 92.025169 464.669525
309 461.269867 -56.106091 -0.008583 -0.000059 -0.000268 92.025169 464.669525
[weapon_bone]
307 -987.239868 1448.372803 0.001431 0.000000 89.965736 -31.038221 1752.833740
308 -987.239868 1448.372803 0.001431 0.000000 89.965736 -31.038221 1752.833740
309 -987.239868 1448.372803 0.001431 0.000000 89.965736 -31.038221 1752.833740
